<?xml version='1.0' encoding='iso-8859-1'?>
<!DOCTYPE svg PUBLIC '-//W3C//DTD SVG 1.1//EN' 'http://www.w3.org/Graphics/SVG/1.1/DTD/svg11.dtd'>
<svg version="1.1" xmlns="http://www.w3.org/2000/svg" viewBox="0 0 512 512" xmlns:xlink="http://www.w3.org/1999/xlink" enable-background="new 0 0 512 512">
  <path d="m480,112h-96v-64c0-17.672-14.328-32-32-32h-192c-17.672,0-32,14.328-32,32v64h-96c-17.594,0-32,14.406-32,32v96 192c0,17.594 14.406,32 32,32h16c0,17.673 14.327,32 32,32s32-14.327 32-32h288c0,17.673 14.327,32 32,32s32-14.327 32-32h16c17.594,0 32-14.406 32-32v-192-96c0-17.594-14.406-32-32-32zm-336,256c0,8.844-7.164,16-16,16s-16-7.156-16-16v-160c0-8.836 7.164-16 16-16s16,7.164 16,16v160zm176-256h-128v-32h128v32zm80,256c0,8.844-7.164,16-16,16s-16-7.156-16-16v-160c0-8.836 7.164-16 16-16s16,7.164 16,16v160z"/>
</svg>
